<?xml version="1.0" encoding="utf-8" ?>
<svg baseProfile="full" height="300mm" version="1.1" viewBox="0,0,200,300" width="200mm" xmlns="http://www.w3.org/2000/svg" xmlns:ev="http://www.w3.org/2001/xml-events" xmlns:xlink="http://www.w3.org/1999/xlink"><defs /><rect fill="#222222" height="300" width="200" x="0" y="0" /><text fill="#FFFFFF" style="font-size:12px; font-family:Arial; font-weight:bold;" x="10" y="20">跑步路径</text><text fill="#FFFFFF" style="font-size:4px; font-family:Arial" x="10" y="280">Runner</text><text fill="#FFFFFF" style="font-size:9px; font-family:Arial" x="10" y="290">lyd</text><text fill="#FFFFFF" style="font-size:4px; font-family:Arial" x="65" y="280">SPECIAL TRACKS</text><rect fill="yellow" height="2.6" width="2.6" x="65" y="283" /><text fill="#FFFFFF" style="font-size:3px; font-family:Arial" x="70" y="285.5">Over 20.0 km</text><rect fill="red" height="2.6" width="2.6" x="65" y="287" /><text fill="#FFFFFF" style="font-size:3px; font-family:Arial" x="70" y="289.5">Over 40.0 km</text><text fill="#FFFFFF" style="font-size:4px; font-family:Arial" x="120" y="280">STATISTICS</text><text fill="#FFFFFF" style="font-size:3px; font-family:Arial" x="120" y="285">Number: 2</text><text fill="#FFFFFF" style="font-size:3px; font-family:Arial" x="120" y="290">Weekly: 1.0</text><text fill="#FFFFFF" style="font-size:3px; font-family:Arial" x="141" y="285">Total: 3.9 km</text><text fill="#FFFFFF" style="font-size:3px; font-family:Arial" x="141" y="290">Avg: 2.0 km</text><text fill="#FFFFFF" style="font-size:3px; font-family:Arial" x="167" y="285">Min: 1.9 km</text><text fill="#FFFFFF" style="font-size:3px; font-family:Arial" x="167" y="290">Max: 2.0 km</text><polyline fill="none" points="140.18113313475624,36.0 140.44635513564572,36.57704990997445 140.44635513564572,37.25027447834145 140.7115771365352,37.82732382777613 140.53476246912032,38.59672255802434 140.18113313475624,39.558470323565416 140.09272580128163,40.520217370125465 139.91591113386676,41.289614489651285 139.73909646645188,41.96283659199253 139.562281799037,42.53988382790703 139.2970597986132,43.21310527587775 139.2970597986132,43.88632637169212 139.03183779725805,44.55954711523373 138.94343046378344,45.232767506618984 138.85502312984318,45.90598754549865 138.76661579636857,46.675381444743834 138.67820846289396,47.34860072878655 138.58980112941936,48.11799376527779 138.50139379594475,48.88738634146284 138.58980112941936,49.46443047153298 138.41298646200448,50.137648296542466 138.2361717945896,50.81086576904636 138.0593571276404,51.291735176811926 137.88254246022552,51.772604404599406 137.79413512628525,52.253473452758044 137.61732045933604,52.8305160732707 137.52891312586144,53.50373213691637 137.35209845844656,54.080774196772836 137.17528379149735,54.561642382410355 136.99846912408248,55.0425103881862 136.8216544566676,55.523378214333206 136.55643245577812,56.00424586061854 136.37961778836325,56.3889398482861 136.20280312141404,56.869807171286084 136.11439578747377,57.2545009002788 135.93758112052456,57.735367899760604 135.8491737865843,58.312408061814494 135.5839517856948,58.79327466583345 135.5839517856948,59.274141089990735 135.4071371187456,59.755007334868424 135.31872978480533,60.235873399535194 135.14191511785612,60.71673928492237 135.05350778391585,61.19760499044787 134.61147111607715,61.58229742536787 134.1694344477728,62.2555089101661 133.90421244688332,63.12106601544656 133.63899044599384,63.986622538766824 133.10854644421488,64.56365989730693 132.7549171098508,65.33304263954051 132.4012877754867,66.00625216169283 132.04765844065696,66.6794613316888 131.69402910629287,67.35267014929559 131.34039977146313,68.02587861474603 131.07517777057365,68.69908672827296 130.89836310362443,69.37229448917788 130.63314110273495,69.7569844800746 130.36791910184547,70.14167435641866 130.01428976701573,70.52636411739513 129.8374751000665,71.00722615676932 129.6606604331173,71.39191565918736 129.30703109828755,71.77660504647065 129.04180909739807,72.25746661878657 128.8649944299832,72.6421557472786 128.68817976256832,73.02684476075228 128.51136509515345,73.41153365920763 128.24614309472963,73.89239462057594 127.98092109337449,74.27708326024003 127.80410642642528,74.75794389820658 127.62729175947607,75.23880435642786 127.36206975858659,75.71966463513672 127.27366242464632,76.20052473375108 127.0968477576971,76.68138465296943 126.92003309028223,77.06607245886698 126.74321842286736,77.54693205479998 126.56640375545248,77.93161960190628 126.38958908850327,78.41247887408827 126.2127744210884,78.7971661624033 125.94755242019892,79.18185333604924 125.68233041930944,79.66271214105655 125.41710841841996,80.14357076655142 125.32870108494535,80.52825753740035 125.06347908405587,80.91294419323094 124.79825708316639,81.29763073415961 124.62144241621718,81.68231716006994 124.4446277488023,82.16317503072787 124.26781308138743,82.64403272175696 123.91418374655768,83.02871874533594 123.6489617456682,83.41340465378016 123.47214707825333,83.89426187751815 123.29533241130412,84.27894752717111 123.03011041041464,84.66363306180574 122.76488840952516,85.04831848153844 122.49966640863568,85.52917509432882 122.32285174168646,86.01003152760677 122.14603707427159,86.39471654477529 121.88081507338211,86.87557265465148 121.70400040596724,87.26025741314515 121.52718573855236,87.74111319950316 121.26196373766288,88.12579769908916 120.81992706982419,88.79899529693648 120.46629773499444,89.56836354883853 120.11266840063035,90.24156039196532 119.75903906626627,91.10709867288824 119.40540973190218,91.78029471100308 119.22859506448731,92.54966118047014 118.96337306359783,93.3190271903295 118.78655839618295,94.184563401388 118.52133639529347,94.85775782959536 118.34452172834426,95.72329300560523 118.16770706046373,96.39648662880063 117.99089239351451,97.26202077011112 117.99089239351451,98.03138396225404 117.90248506003991,98.70457637833897 117.8140777265653,99.47393870831002 117.8140777265653,100.05096015369054 117.99089239351451,100.53181116085034 117.90248506003991,101.01266198814847 117.8140777265653,101.58968274376821 117.63726305868477,102.07053317595273 117.63726305868477,102.64755345741287 117.63726305868477,103.22457347984891 117.63726305868477,103.60925335111097 117.54885572567582,103.99393310770392 117.46044839173555,104.37861274904571 117.37204105826095,104.85946213896386 117.19522639084607,105.34031134936959 117.10681905783713,105.82116038003005 116.9300043899566,106.30200923117809 116.84159705648199,106.78285790246446 116.66478238906711,107.2637063942384 116.57637505559251,107.84072434727568 116.31115305470303,108.32157244358677 116.22274572076276,108.80242036050186 115.95752371987328,109.28326809743885 115.6923017189838,109.76411565509625 115.33867238461971,110.14879357162863 114.98504305025563,110.72581023117527 114.71982104936615,111.20665724948049 114.36619171500206,111.59133473492693 114.18937704758719,112.07218143006321 113.9241550466977,112.45685865695123 113.57052571186796,112.84153576870449 113.30530371144414,113.226212765323 113.04008171055466,113.61088964738883 112.77485970966518,113.9955664142035 112.42123037483543,114.38024306599982 112.15600837394595,114.66875047946814 111.80237903958187,115.05342692986596 111.53715703869238,115.43810326582752 111.18352770386264,115.726610441925 110.91830570297316,116.11128657648806 110.56467636860907,116.49596259591635 110.29945436771959,116.88063850055914 109.9458250333555,117.26531428995077 109.68060303246602,117.64998996444046 109.41538103157654,118.03466552426107 109.15015903068706,118.4193409687141 108.88493702979758,118.80401629849803 108.53130769496784,119.09252272022422 108.26608569407836,119.47719784860965 108.00086369365454,119.86187286197674 107.73564169276506,120.2465477604419 107.47041969187558,120.53505385888275 107.2051976909861,120.91972855606582 106.93997569009662,121.30440313846339 106.76316102268174,121.68907760595903 106.49793902179226,122.0737519582035 106.32112435437739,122.45842619542964 106.05590235348791,122.84310031775385 105.87908768607304,123.22777432552539 105.61386568518355,123.61244821781293 105.34864368429407,123.99712199531496 105.17182901734486,124.38179565779865 104.90660701645538,124.766469205264 104.72979234950617,125.15114263806026 104.46457034861669,125.3434793112101 104.11094101378694,124.95880593615584 103.75731167942286,124.67030082922429 103.3152750111185,124.47796405560803 102.87323834281415,124.28562725312077 102.43120167497545,123.99712199531496 101.9891650066711,124.09329042152967 101.72394300624728,124.38179565779865 101.28190633794293,124.67030082922429 101.10509167052805,125.05497429042589 100.7514623356983,125.3434793112101 100.57464766828343,125.82432086835615 100.30942566739395,126.20899398485199 100.13261100044474,126.59366698621307 100.04420366650447,126.97833987243939 99.86738899955526,127.36301264422946 99.69057433260605,127.8438534468878 99.4253523312509,128.22852595953736 99.2485376643017,128.7093664391432 99.07172299688682,129.09403869323432 98.8949083299376,129.57487884897273 98.71809366252273,129.95955084462184 98.54127899510786,130.44039067719132 98.27605699421838,130.82506241393276 98.01083499286324,131.20973403577227 97.74561299243942,131.6905734015163 97.65720565896481,132.07524476468097 97.48039099108428,132.5560838067904 97.39198365807533,133.03692266938742 97.21516899112612,133.61392906762194 97.03835432324558,134.19093520683236 96.86153965629637,134.6717734587146 96.6847249888815,135.0564439308364 96.59631765540689,135.44111428805627 96.33109565451741,135.92195207299665 96.24268832057714,136.49895717739128 96.24268832057714,137.07596202357672 96.15428098710254,137.5567991976859 96.15428098710254,138.03763619204983 96.06587365362793,138.42230565822683 95.88905898621306,138.80697500973474 95.71224431879818,139.38397882087156 95.4470223179087,139.76864788495004 95.09339298354462,139.96098237368278 94.65135631524026,140.15331683377735 94.20931964740157,140.2494840528816 93.76728297909722,140.3456512648845 93.32524631079286,140.44181847001892 92.88320964295417,140.53798566758633 92.35276564117521,140.63415285828523 91.99913630634546,140.73032004164997 91.4686923045665,140.82648721768055 90.93824830278754,140.92265438649338 90.40780430100858,141.01882154855411 89.87736029922962,141.11498870304786 89.43532363139093,141.11498870304786 88.90487962961197,141.21115585044026 88.55125029524788,141.40349012380466 88.19762096041813,141.49965724954382 87.75558429211378,141.59582436818164 87.31354762427509,141.59582436818164 86.95991828944534,141.59582436818164 86.60628895508125,141.69199147995096 86.1642522867769,141.88432568113785 85.81062295241281,141.9804927710211 85.36858628410846,142.0766598539194 84.92654961626977,142.17282692925073 84.57292028190568,142.17282692925073 84.13088361360133,142.17282692925073 83.77725427923724,142.17282692925073 83.24681027745828,142.17282692925073 82.80477360868827,142.26899399771355 82.36273694038391,142.26899399771355 81.92070027254522,142.36516105907504 81.47866360470653,142.46132811286952 80.94821960292757,142.46132811286952 80.59459026809782,142.65366219962016 80.329368267674,143.03833028615918 79.79892426542938,143.23066428629681 79.26848026365042,143.4229982579127 78.82644359581172,143.5191652327776 78.29599959403276,143.6153322008904 77.76555559178814,143.7114991612034 77.32351892394945,143.80766611464787 76.61626025475562,143.6153322008904 76.08581625297666,143.6153322008904 75.64377958513796,143.80766611464787 75.20174291683361,144.0 74.67129891505465,144.0 74.3176695802249,143.80766611464787 74.05244757933542,143.32683127583005 73.7872255789116,142.94216327508911 73.61041091149673,142.5574951597955 73.52200357802212,141.9804927710211 73.52200357802212,141.49965724954382 73.52200357802212,141.01882154855411 73.61041091149673,140.44181847001892 73.52200357802212,139.96098237368278 73.52200357802212,139.5763133672299 73.25678157713264,139.09547694772482 73.16837424365804,138.71080768259708 73.07996690971777,138.22997093945742 72.9031522423029,137.74913401692174 72.63793024141341,137.2682969146408 72.37270824052393,136.88362710375804 72.19589357357472,136.40278967807535 71.75385690527037,136.11428713658825 71.22341290395707,136.11428713658825 70.69296890217811,136.11428713658825 70.16252489993349,136.11428713658825 69.80889556510374,136.40278967807535 69.54367356421426,136.78745963296387 69.27845156379044,136.97979456710164 68.92482222942635,136.78745963296387 69.10163689637557,136.40278967807535 70.16252489993349,136.78745963296387 70.07411756599322,137.17212947283406 68.92482222942635,136.78745963296387 68.30597089370713,136.78745963296387 67.86393422586843,136.69129215495195 67.2450828901492,136.40278967807535 66.80304622184485,136.49895717739128 66.09578755311668,136.40278967807535 65.65375088527799,136.40278967807535 65.12330688303337,136.21045465767384 64.5928628812544,135.8257845302578 64.15082621295005,135.5372818595497 63.97401154600084,134.57560582272708 63.531974877696484,134.28710287169088 63.001530875917524,134.19093520683236 62.38267954066396,134.28710287169088 61.852235538885,134.8641087091528 61.58701353799552,135.44111428805627 60.96816220274195,135.24877912388183 60.349310867488384,134.76794108748436 59.81886686524376,134.57560582272708 59.465237530414015,134.57560582272708 59.2884228634648,134.3832705289824 59.37683019740507,134.09476753487252 59.730459531303495,133.99859985581134 59.64205219829455,133.61392906762194 59.465237530414015,133.8062644758029 59.81886686524376,134.09476753487252 59.99568153265864,134.47943817952182 60.43771820096299,134.47943817952182 60.70294020138681,134.47943817952182 60.96816220274195,134.47943817952182 61.49860620405525,134.47943817952182 61.76382820494473,134.6717734587146 62.02905020583421,134.8641087091528 61.67542087147012,134.96027632371988" stroke="#4DD2FF" stroke-linecap="round" stroke-linejoin="round" stroke-width="0.5"><title>2025-04-08 2.0km</title><desc>9223370292735791807</desc></polyline><polyline fill="none" points="82.79874972254038,156.0 82.79874972254038,158.56475020514335 82.79874972254038,161.69943786913063 82.62411773949862,164.92910797905643 82.44948575738817,168.1587698791409 82.36216976586729,170.8184852793347 82.53680174797773,173.76316369255073 82.7114337310195,176.5178566746181 82.8860657135956,179.65250004455447 82.97338170465082,182.40718025830574 83.06069769570604,185.5418090991443 83.14801368722692,188.29647654504515 82.97338170465082,190.9561497917166 83.06069769570604,194.47070947149768 82.8860657135956,196.46545523568057 83.06069769570604,199.6000493959291 83.2353296787478,202.16471159341745 83.2353296787478,204.7293686149642 83.49727765237913,207.8639423896093 83.58459364343435,210.52357468032278 83.32264566980302,210.99850843229797 83.14801368722692,212.51829524536151 83.67190963495523,213.75312069279607 83.75922562601045,214.51301267929375 83.4099616613239,215.17791779479012 83.06069769570604,217.9325209959643 83.2353296787478,220.30717413546517 83.2353296787478,220.6871182259638 83.14801368722692,222.11190755385906 83.32264566980302,223.44170948548708 82.97338170465082,226.19629477406852 83.2353296787478,229.14084485941567 83.49727765237913,231.42049185291398 83.2353296787478,233.03523933247197 83.49727765237913,236.1697432891233 83.75922562601045,237.97445418138523 83.75922562601045,239.3042395147495 84.02117359964177,240.06411622359883 84.6323855384253,240.44405440741684 85.59286144236103,240.72900797089096 88.12502518901601,242.15377482993063 89.60939704021439,243.10361851507332 91.87961281323805,245.0982879435178 92.31619276944548,245.66819291946013 93.10203669080511,248.3277460950194 93.62593263853341,250.4173911147518 94.32446056837216,251.55719604087062 95.28493647184223,252.69699994497932 97.03125629713759,253.93178635416552 99.8253680174239,254.97660468670074 102.09558379044756,256.11640552431345 104.71506352769211,257.82610486412887 105.3262754669413,258.20603773836046 107.15991128329188,260.58061562967487 108.38233516085893,263.0501719308086 110.30328696873039,264.0 110.8271829164587,263.8100344428094 111.61302683735266,263.0501719308086 112.22423877613619,262.95518908509985 112.83545071538538,262.95518908509985 113.18471468007192,262.67024050466716 114.58177054021508,260.29566651699133 116.06614239187911,257.82610486412887 116.9393023038283,256.3063722309889 117.20125027792528,253.7418192923069 117.28856626944616,250.98729370569345 116.9393023038283,247.66285832307767 117.02661829534918,245.66819291946013 117.63783023413271,244.05346149054822 116.59003833914176,244.8133353596786 115.89151040930301,246.61803397815675 116.06614239187911,249.46755289530847 116.32809036551043,250.89230995811522 116.06614239187911,254.1217533875024 115.5422464441508,256.4013555737911 115.1929824789986,256.9712554815924 115.0183504964225,257.54115513374563 114.4944545486942,257.92108809319325 113.35934666264802,259.72576810000464 113.09739868855104,260.39064956177026 111.43839485524222,262.38529186032247 110.8271829164587,262.7652233717963" stroke="#4DD2FF" stroke-linecap="round" stroke-linejoin="round" stroke-width="0.5"><title>2022-04-10 1.9km</title><desc>9223370387263096618</desc></polyline></svg>