<?xml version="1.0" encoding="utf-8" ?>
<svg baseProfile="full" height="300mm" version="1.1" viewBox="0,0,200,300" width="200mm" xmlns="http://www.w3.org/2000/svg" xmlns:ev="http://www.w3.org/2001/xml-events" xmlns:xlink="http://www.w3.org/1999/xlink"><defs /><rect fill="#222222" height="300" width="200" x="0" y="0" /><text fill="#FFFFFF" style="font-size:12px; font-family:Arial; font-weight:bold;" x="10" y="20">Over 1km Runs</text><text fill="#FFFFFF" style="font-size:4px; font-family:Arial" x="10" y="280">Runner</text><text fill="#FFFFFF" style="font-size:9px; font-family:Arial" x="10" y="290">onvo</text><text fill="#FFFFFF" style="font-size:4px; font-family:Arial" x="65" y="280">SPECIAL TRACKS</text><rect fill="yellow" height="2.6" width="2.6" x="65" y="283" /><text fill="#FFFFFF" style="font-size:3px; font-family:Arial" x="70" y="285.5">Over 20.0 km</text><rect fill="red" height="2.6" width="2.6" x="65" y="287" /><text fill="#FFFFFF" style="font-size:3px; font-family:Arial" x="70" y="289.5">Over 40.0 km</text><text fill="#FFFFFF" style="font-size:4px; font-family:Arial" x="120" y="280">STATISTICS</text><text fill="#FFFFFF" style="font-size:3px; font-family:Arial" x="120" y="285">Number: 2</text><text fill="#FFFFFF" style="font-size:3px; font-family:Arial" x="120" y="290">Weekly: 1.0</text><text fill="#FFFFFF" style="font-size:3px; font-family:Arial" x="141" y="285">Total: 3.9 km</text><text fill="#FFFFFF" style="font-size:3px; font-family:Arial" x="141" y="290">Avg: 2.0 km</text><text fill="#FFFFFF" style="font-size:3px; font-family:Arial" x="167" y="285">Min: 1.9 km</text><text fill="#FFFFFF" style="font-size:3px; font-family:Arial" x="167" y="290">Max: 2.0 km</text><polyline fill="none" points="140.18113313429058,36.0 140.44635513518006,36.577049910090864 140.44635513518006,37.25027447845787 140.71157713606954,37.82732382789254 140.53476246865466,38.59672255802434 140.18113313429058,39.558470323565416 140.09272580081597,40.520217370125465 139.9159111334011,41.2896144897677 139.73909646645188,41.96283659210894 139.562281799037,42.53988382790703 139.29705979814753,43.21310527599417 139.29705979814753,43.886326371808536 139.03183779725805,44.55954711535014 138.94343046331778,45.2327675067354 138.85502312984318,45.90598754561506 138.7666157959029,46.675381444743834 138.6782084624283,47.348600728902966 138.5898011289537,48.11799376516137 138.5013937954791,48.88738634157926 138.5898011289537,49.46443047164939 138.41298646153882,50.137648296542466 138.23617179412395,50.810865769162774 138.05935712717474,51.291735176811926 137.88254245975986,51.77260440471582 137.7941351258196,52.25347345287446 137.61732045887038,52.8305160732707 137.52891312539577,53.503732136799954 137.3520984579809,54.080774196772836 137.1752837910317,54.561642382410355 136.99846912361681,55.0425103881862 136.82165445620194,55.52337821444962 136.55643245577812,56.00424586061854 136.37961778836325,56.388939848402515 136.20280312094837,56.869807171286084 136.1143957870081,57.2545009002788 135.9375811200589,57.735367899760604 135.84917378611863,58.31240806169808 135.58395178522915,58.79327466583345 135.58395178522915,59.27414109010715 135.40713711827993,59.755007334868424 135.31872978433967,60.23587339965161 135.14191511739045,60.716739285038784 135.0535077834502,61.19760499056429 134.6114711156115,61.582297425484285 134.1694344477728,62.2555089101661 133.90421244641766,63.12106601544656 133.63899044552818,63.98662253865041 133.10854644374922,64.56365989730693 132.75491710938513,65.33304263965692 132.40128777502105,66.00625216180924 132.0476584401913,66.6794613316888 131.69402910629287,67.352670149412 131.34039977146313,68.02587861486245 131.07517777057365,68.69908672827296 130.89836310315877,69.37229448929429 130.6331411022693,69.7569844800746 130.3679191013798,70.14167435641866 130.01428976655006,70.52636411739513 129.83747509960085,71.00722615688574 129.66066043265164,71.39191565930378 129.3070310978219,71.77660504647065 129.0418090969324,72.25746661878657 128.8649944299832,72.64215574716218 128.68817976256832,73.0268447608687 128.51136509515345,73.41153365932405 128.24614309426397,73.89239462045953 127.98092109290883,74.27708326024003 127.80410642595962,74.75794389820658 127.6272917590104,75.23880435642786 127.36206975812092,75.71966463502031 127.27366242418066,76.20052473375108 127.09684775723144,76.68138465308584 126.92003308981657,77.0660724589834 126.7432184224017,77.54693205479998 126.56640375545248,77.93161960190628 126.38958908803761,78.41247887408827 126.2127744210884,78.7971661624033 125.94755241973326,79.18185333604924 125.68233041884378,79.66271214105655 125.4171084179543,80.143570766435 125.32870108447969,80.52825753740035 125.06347908359021,80.91294419323094 124.79825708270073,81.29763073427603 124.62144241575152,81.68231715995353 124.44462774833664,82.16317503084429 124.26781308092177,82.64403272175696 123.91418374655768,83.02871874545235 123.6489617456682,83.41340465366375 123.47214707825333,83.89426187751815 123.29533241083845,84.2789475270547 123.03011040994897,84.66363306180574 122.7648884090595,85.04831848153844 122.49966640817001,85.52917509444524 122.3228517412208,86.01003152760677 122.14603707380593,86.39471654465888 121.88081507338211,86.87557265465148 121.70400040596724,87.26025741302874 121.52718573855236,87.74111319950316 121.26196373766288,88.12579769920558 120.81992706935853,88.79899529693648 120.46629773452878,89.56836354883853 120.1126684001647,90.24156039196532 119.75903906580061,91.10709867288824 119.40540973143652,91.78029471100308 119.22859506402165,92.54966118047014 118.96337306313217,93.3190271903295 118.78655839618295,94.18456340115517 118.52133639529347,94.85775782947894 118.3445217278786,95.7232930053724 118.16770706046373,96.39648662880063 117.99089239304885,97.26202077011112 117.99089239304885,98.03138396213762 117.90248505957425,98.70457637845539 117.81407772609964,99.47393870831002 117.81407772609964,100.05096015369054 117.99089239304885,100.53181116085034 117.90248505957425,101.01266198803205 117.81407772609964,101.58968274376821 117.6372630582191,102.07053317595273 117.6372630582191,102.64755345741287 117.6372630582191,103.22457347984891 117.6372630582191,103.60925335111097 117.54885572521016,103.99393310758751 117.46044839126989,104.3786127489293 117.37204105779529,104.85946213884745 117.19522639038041,105.34031134936959 117.10681905737147,105.82116038003005 116.93000438949093,106.30200923106167 116.84159705601633,106.78285790246446 116.66478238860145,107.2637063942384 116.57637505512685,107.84072434715927 116.31115305470303,108.32157244335394 116.22274572076276,108.80242036050186 115.95752371987328,109.28326809743885 115.6923017189838,109.76411565509625 115.33867238415405,110.14879357174505 114.98504304978997,110.72581023117527 114.71982104890049,111.20665724948049 114.3661917145364,111.59133473492693 114.18937704712152,112.07218143006321 113.92415504623204,112.45685865683481 113.57052571186796,112.84153576847166 113.30530371097848,113.226212765323 113.040081710089,113.61088964738883 112.77485970919952,113.99556641408708 112.42123037436977,114.38024306599982 112.15600837348029,114.66875047946814 111.8023790391162,115.05342692986596 111.53715703869238,115.4381032657111 111.18352770386264,115.72661044180859 110.91830570297316,116.11128657648806 110.56467636860907,116.49596259591635 110.29945436725393,116.88063850044273 109.94582503288984,117.26531428995077 109.68060303200036,117.64998996444046 109.41538103111088,118.03466552414466 109.1501590302214,118.4193409687141 108.88493702933192,118.80401629838161 108.53130769496784,119.09252272022422 108.26608569407836,119.47719784849323 108.00086369318888,119.86187286197674 107.7356416922994,120.24654776032548 107.47041969140992,120.53505385876633 107.20519769052044,120.91972855583299 106.93997568963096,121.30440313846339 106.76316102221608,121.6890776057262 106.4979390213266,122.0737519582035 106.32112435391173,122.45842619542964 106.05590235348791,122.84310031775385 105.87908768607304,123.22777432529256 105.61386568518355,123.61244821781293 105.34864368429407,123.99712199531496 105.1718290168792,124.38179565779865 104.90660701598972,124.76646920514759 104.72979234904051,125.15114263794385 104.46457034815103,125.34347931109369 104.11094101332128,124.95880593603943 103.7573116789572,124.67030082922429 103.3152750111185,124.47796405560803 102.87323834281415,124.28562725300435 102.4312016745098,123.99712199531496 101.98916500620544,124.09329042152967 101.72394300578162,124.38179565779865 101.28190633747727,124.67030082922429 101.1050916700624,125.05497429042589 100.7514623356983,125.34347931109369 100.57464766828343,125.82432086823974 100.30942566739395,126.20899398473557 100.13261099997908,126.59366698609665 100.04420366650447,126.97833987243939 99.8673889990896,127.36301264422946 99.69057433214039,127.84385344677139 99.42535233078524,128.22852595953736 99.24853766383603,128.70936643891037 99.07172299642116,129.0940386931179 98.89490832947195,129.57487884897273 98.71809366252273,129.95955084462184 98.5412789946422,130.44039067719132 98.27605699375272,130.82506241393276 98.01083499286324,131.20973403577227 97.74561299243942,131.6905734015163 97.65720565849915,132.07524476456456 97.48039099108428,132.5560838067904 97.39198365760967,133.03692266938742 97.21516899066046,133.61392906762194 97.03835432277992,134.19093520671595 96.86153965583071,134.67177345859818 96.68472498841584,135.05644393071998 96.59631765494123,135.44111428793985 96.33109565405175,135.92195207276382 96.24268832011148,136.49895717739128 96.24268832011148,137.0759620234603 96.15428098710254,137.5567991975695 96.15428098710254,138.03763619204983 96.06587365316227,138.42230565811042 95.88905898621306,138.80697500961833 95.71224431879818,139.38397882087156 95.4470223179087,139.76864788483363 95.09339298307896,139.96098237356637 94.6513563147746,140.15331683366094 94.20931964693591,140.24948405276518 93.76728297863156,140.3456512648845 93.32524631079286,140.44181847001892 92.88320964295417,140.53798566758633 92.35276564070955,140.6341528580524 91.9991363058798,140.73032004153356 91.46869230410084,140.82648721756414 90.93824830278754,140.92265438637696 90.40780430100858,141.0188215484377 89.87736029922962,141.11498870293144 89.43532363092527,141.11498870293144 88.90487962914631,141.21115585032385 88.55125029478222,141.40349012368824 88.19762095995247,141.49965724954382 87.75558429211378,141.59582436818164 87.31354762380943,141.59582436818164 86.95991828897968,141.59582436818164 86.6062889546156,141.69199147971813 86.16425228631124,141.88432568113785 85.81062295241281,141.98049277090468 85.36858628410846,142.0766598539194 84.9265496158041,142.17282692925073 84.57292028144002,142.17282692925073 84.13088361313567,142.17282692925073 83.77725427877158,142.17282692925073 83.24681027699262,142.17282692925073 82.80477360868827,142.26899399759714 82.36273694038391,142.26899399759714 81.92070027254522,142.36516105907504 81.47866360424086,142.46132811286952 80.9482196024619,142.46132811286952 80.59459026809782,142.65366219950374 80.329368267674,143.03833028604276 79.79892426542938,143.2306642861804 79.26848026365042,143.42299825767986 78.82644359534606,143.51916523266118 78.2959995935671,143.61533220065758 77.76555559178814,143.7114991612034 77.32351892394945,143.80766611453146 76.61626025475562,143.61533220065758 76.085816252511,143.61533220065758 75.6437795846723,143.80766611453146 75.20174291683361,144.0 74.67129891505465,144.0 74.3176695802249,143.80766611453146 74.05244757933542,143.32683127571363 73.78722557844594,142.9421632749727 73.61041091103107,142.5574951596791 73.52200357755646,141.98049277090468 73.52200357755646,141.49965724954382 73.52200357755646,141.0188215484377 73.61041091103107,140.44181847001892 73.52200357755646,139.96098237356637 73.52200357755646,139.57631336711347 73.25678157666698,139.0954769476084 73.16837424319237,138.71080768236425 73.07996690925211,138.22997093945742 72.9031522423029,137.74913401692174 72.63793024141341,137.2682969146408 72.37270824052393,136.88362710364163 72.19589357357472,136.40278967807535 71.75385690527037,136.11428713635541 71.22341290349141,136.11428713635541 70.69296890171245,136.11428713635541 70.16252489993349,136.11428713635541 69.80889556510374,136.40278967807535 69.54367356421426,136.78745963273104 69.27845156332478,136.97979456710164 68.92482222896069,136.78745963273104 69.10163689637557,136.40278967807535 70.16252489993349,136.78745963273104 70.07411756599322,137.17212947283406 68.92482222896069,136.78745963273104 68.30597089324147,136.78745963273104 67.86393422540277,136.69129215471912 67.2450828901492,136.40278967807535 66.80304622184485,136.49895717739128 66.09578755265102,136.40278967807535 65.65375088481233,136.40278967807535 65.12330688303337,136.21045465767384 64.5928628812544,135.8257845301414 64.15082621295005,135.5372818595497 63.97401154553518,134.57560582272708 63.53197487723082,134.28710287169088 63.00153087545186,134.19093520671595 62.38267954066396,134.28710287169088 61.852235538885,134.86410870891996 61.58701353799552,135.44111428793985 60.96816220227629,135.24877912376542 60.34931086702272,134.76794108736794 59.81886686524376,134.57560582272708 59.465237530414015,134.57560582272708 59.2884228634648,134.3832705289824 59.37683019740507,134.0947675347561 59.730459531303495,133.99859985581134 59.64205219829455,133.61392906762194 59.465237530414015,133.8062644758029 59.81886686524376,134.0947675347561 59.995681532192975,134.4794381794054 60.43771820049733,134.4794381794054 60.70294020092115,134.4794381794054 60.96816220227629,134.4794381794054 61.49860620405525,134.4794381794054 61.76382820494473,134.67177345859818 62.02905020583421,134.86410870891996 61.67542087147012,134.96027632360347" stroke="#4DD2FF" stroke-linecap="round" stroke-linejoin="round" stroke-width="0.5"><title>2025-04-08 2.0km</title><desc>9223370292735791807</desc></polyline><polyline fill="none" points="82.79874972207472,156.0 82.79874972207472,158.56475020502694 82.79874972207472,161.69943786913063 82.62411773949862,164.92910797894 82.44948575738817,168.15876987890806 82.36216976586729,170.8184852793347 82.53680174797773,173.76316369255073 82.7114337310195,176.51785667450167 82.88606571312994,179.65250004443806 82.97338170465082,182.40718025830574 83.06069769570604,185.5418090991443 83.14801368722692,188.29647654492874 82.97338170465082,190.95614979160018 83.06069769570604,194.4707094716141 82.88606571312994,196.46545523579698 83.06069769570604,199.60004939581268 83.2353296787478,202.16471159341745 83.2353296787478,204.7293686149642 83.49727765191346,207.8639423897257 83.58459364343435,210.52357468020637 83.32264566933736,210.99850843229797 83.14801368722692,212.51829524536151 83.67190963448957,213.75312069279607 83.75922562601045,214.51301267941017 83.40996166085824,215.17791779490653 83.06069769570604,217.9325209959643 83.2353296787478,220.30717413546517 83.2353296787478,220.6871182259638 83.14801368722692,222.11190755397547 83.32264566933736,223.44170948548708 82.97338170465082,226.19629477406852 83.2353296787478,229.14084485953208 83.49727765191346,231.42049185291398 83.2353296787478,233.0352393325884 83.49727765191346,236.1697432892397 83.75922562601045,237.97445418150164 83.75922562601045,239.3042395148659 84.02117359964177,240.06411622359883 84.6323855384253,240.44405440753326 85.59286144236103,240.72900797100738 88.12502518901601,242.1537748298142 89.60939704021439,243.10361851518974 91.8796128127724,245.0982879436342 92.31619276897982,245.66819291957654 93.10203669033945,248.3277460951358 93.62593263806775,250.4173911146354 94.3244605679065,251.55719604087062 95.28493647184223,252.69699994509574 97.03125629713759,253.93178635428194 99.8253680174239,254.97660468670074 102.09558379044756,256.11640552419703 104.71506352769211,257.82610486412887 105.3262754669413,258.2060377384769 107.15991128329188,260.5806156299077 108.38233516085893,263.0501719310414 110.30328696826473,264.0 110.82718291599303,263.8100344429258 111.61302683735266,263.0501719310414 112.22423877613619,262.95518908509985 112.83545071491972,262.95518908509985 113.18471467960626,262.6702405047836 114.58177053974941,260.29566651710775 116.06614239141345,257.82610486412887 116.9393023038283,256.30637223110534 117.20125027745962,253.74181929242332 117.2885662689805,250.98729370569345 116.9393023038283,247.66285832296126 117.02661829534918,245.66819291957654 117.63783023413271,244.05346149054822 116.5900383386761,244.8133353596786 115.89151040883735,246.61803397827316 116.06614239141345,249.4675528954249 116.32809036551043,250.89230995823164 116.06614239141345,254.1217533875024 115.5422464441508,256.4013555740239 115.1929824789986,256.97125548147596 115.0183504964225,257.54115513397846 114.4944545486942,257.92108809330966 113.35934666264802,259.72576810012106 113.09739868855104,260.3906495618867 111.43839485477656,262.3852918604389 110.82718291599303,262.7652233719127" stroke="#4DD2FF" stroke-linecap="round" stroke-linejoin="round" stroke-width="0.5"><title>2022-04-10 1.9km</title><desc>9223370387263096618</desc></polyline></svg>